<?xml version="1.0" standalone="no"?>
<!DOCTYPE svg PUBLIC "-//W3C//DTD SVG 20010904//EN"
 "http://www.w3.org/TR/2001/REC-SVG-20010904/DTD/svg10.dtd">
<svg version="1.0" xmlns="http://www.w3.org/2000/svg"
 width="564.000000pt" height="564.000000pt" viewBox="0 0 564.000000 564.000000"
 preserveAspectRatio="xMidYMid meet">
<metadata>
Created by potrace 1.11, written by Peter Selinger 2001-2013
</metadata>
<g transform="translate(0.000000,564.000000) scale(0.100000,-0.100000)"
fill="#000000" stroke="none">
<path d="M3260 5633 c-575 -56 -1214 -358 -1765 -834 -135 -117 -370 -360
-478 -494 -382 -475 -614 -1013 -668 -1550 -15 -149 -6 -513 16 -674 62 -451
206 -813 442 -1105 93 -116 203 -226 210 -210 14 39 124 210 180 282 73 93
265 289 356 362 54 44 56 46 56 95 1 28 -8 113 -19 190 -56 392 -54 766 6 998
24 95 81 233 132 320 61 102 180 238 280 318 255 204 606 284 912 209 174 -43
386 -168 524 -309 l59 -60 116 106 c168 155 271 255 283 277 8 15 3 13 -24 -7
-18 -14 -69 -43 -112 -63 -131 -62 -252 -58 -444 16 -207 80 -391 261 -466
461 -45 119 -59 227 -53 389 11 259 78 514 198 750 87 170 176 295 306 430 57
58 103 106 103 108 0 3 -104 0 -150 -5z"/>
<path d="M4106 4520 c60 -149 77 -227 78 -370 1 -162 -23 -279 -85 -407 -60
-126 -142 -225 -359 -433 l-200 -193 26 -41 c47 -76 114 -221 131 -286 13 -48
18 -101 17 -205 0 -123 -4 -151 -28 -230 -51 -168 -131 -289 -266 -402 -92
-77 -210 -145 -315 -181 -72 -24 -94 -27 -220 -27 -126 0 -147 3 -213 27 -101
37 -202 99 -280 173 l-66 63 -150 -137 c-82 -75 -166 -152 -187 -171 l-37 -35
15 -130 c20 -185 20 -514 0 -640 -31 -194 -91 -356 -180 -487 -25 -38 -44 -68
-43 -68 1 0 55 -16 120 -35 237 -70 509 -111 810 -124 611 -26 1146 67 1572
274 515 250 853 660 993 1208 56 216 66 313 66 632 -1 320 -13 428 -75 678
-101 403 -304 804 -572 1129 -189 229 -479 478 -556 478 -21 0 -21 0 4 -60z"/>
<path d="M2685 3429 c-275 -39 -588 -295 -705 -575 -64 -154 -86 -321 -77
-584 5 -144 35 -499 43 -508 2 -3 245 210 317 278 18 16 17 19 -17 81 -61 112
-81 196 -80 339 0 148 15 216 77 340 77 158 233 281 391 309 89 16 240 14 283
-4 86 -36 97 -74 21 -67 -64 5 -176 -18 -244 -49 -60 -28 -149 -117 -186 -184
-67 -127 -61 -344 15 -468 l23 -37 442 401 c243 220 442 404 442 408 0 16
-161 161 -227 205 -83 56 -204 101 -307 115 -87 12 -125 12 -211 0z"/>
<path d="M3395 2978 c-44 -39 -136 -120 -205 -181 -139 -122 -583 -537 -588
-549 -8 -19 110 -102 189 -134 203 -83 387 -31 585 164 75 74 138 179 168 282
25 84 31 222 13 307 -15 70 -62 184 -75 182 -4 0 -43 -32 -87 -71z"/>
<path d="M1517 1268 c-100 -98 -107 -109 -165 -228 -144 -297 -212 -716 -161
-987 l10 -52 64 23 c207 75 356 309 402 630 12 84 14 155 10 291 -8 233 -29
425 -46 425 -5 0 -56 -46 -114 -102z"/>
</g>
</svg>
